<svg xmlns="http://www.w3.org/2000/svg" width="34" height="14" viewBox="0 0 34 14">
  <g id="Group_11614" data-name="Group 11614" transform="translate(-370.508 -432.915)">
    <rect id="Rectangle_7481" data-name="Rectangle 7481" width="34" height="14" rx="4" transform="translate(370.508 432.915)" fill="#ce18db"/>
    <g id="STRM" style="mix-blend-mode: normal;isolation: isolate">
      <g id="Group_11613" data-name="Group 11613" style="mix-blend-mode: normal;isolation: isolate">
        <path id="Path_8554" data-name="Path 8554" d="M375.677,442.4l.765-.918a2.625,2.625,0,0,0,1.693.738c.693,0,1.062-.3,1.062-.765,0-.495-.4-.648-1-.9l-.892-.379a1.929,1.929,0,0,1-1.35-1.791,2.077,2.077,0,0,1,2.3-1.926,2.951,2.951,0,0,1,2.088.855l-.674.837a2.129,2.129,0,0,0-1.414-.549c-.585,0-.963.261-.963.7,0,.478.476.649,1.044.873l.873.369a1.841,1.841,0,0,1,1.341,1.81,2.167,2.167,0,0,1-2.449,2.017A3.547,3.547,0,0,1,375.677,442.4Z" fill="#fff"/>
        <path id="Path_8555" data-name="Path 8555" d="M382.85,437.691h-1.872v-1.107h5.1v1.107h-1.891v5.555H382.85Z" fill="#fff"/>
        <path id="Path_8556" data-name="Path 8556" d="M390.78,443.246l-1.368-2.521h-.927v2.521h-1.333v-6.662h2.323c1.395,0,2.5.486,2.5,2.016a1.909,1.909,0,0,1-1.268,1.918l1.556,2.728Zm-2.3-3.575h.864c.855,0,1.324-.36,1.324-1.071s-.469-.963-1.324-.963h-.864Z" fill="#fff"/>
        <path id="Path_8557" data-name="Path 8557" d="M393.29,436.584h1.476L395.9,439.7c.144.414.27.855.4,1.287h.046c.144-.432.261-.873.4-1.287l1.107-3.115h1.477v6.662h-1.215v-2.783c0-.629.1-1.556.162-2.187h-.036l-.54,1.566-1.027,2.8h-.765l-1.035-2.8-.532-1.566h-.036c.064.631.171,1.558.171,2.187v2.783h-1.2Z" fill="#fff"/>
      </g>
    </g>
  </g>
</svg>
